<?xml version="1.0" encoding="utf-8"?>
<!-- Generator: Adobe Illustrator 16.0.0, SVG Export Plug-In . SVG Version: 6.00 Build 0)  -->
<!DOCTYPE svg PUBLIC "-//W3C//DTD SVG 1.1//EN" "http://www.w3.org/Graphics/SVG/1.1/DTD/svg11.dtd" [
	<!ENTITY ns_extend "http://ns.adobe.com/Extensibility/1.0/">
	<!ENTITY ns_ai "http://ns.adobe.com/AdobeIllustrator/10.0/">
	<!ENTITY ns_graphs "http://ns.adobe.com/Graphs/1.0/">
	<!ENTITY ns_vars "http://ns.adobe.com/Variables/1.0/">
	<!ENTITY ns_imrep "http://ns.adobe.com/ImageReplacement/1.0/">
	<!ENTITY ns_sfw "http://ns.adobe.com/SaveForWeb/1.0/">
	<!ENTITY ns_custom "http://ns.adobe.com/GenericCustomNamespace/1.0/">
	<!ENTITY ns_adobe_xpath "http://ns.adobe.com/XPath/1.0/">
]>
<svg version="1.1" id="Layer_1" xmlns:x="&ns_extend;" xmlns:i="&ns_ai;" xmlns:graph="&ns_graphs;"
	 xmlns="http://www.w3.org/2000/svg" xmlns:xlink="http://www.w3.org/1999/xlink" x="0px" y="0px" width="1325px"
	 height="343.582px" viewBox="-2.834 0 1325 343.582" enable-background="new -2.834 0 1325 343.582" xml:space="preserve">
<metadata>
	<sfw  xmlns="&ns_sfw;">
		<slices></slices>
		<sliceSourceBounds  height="1662.397" width="2209.422" bottomLeftOrigin="true" x="-964.482" y="-637.605"></sliceSourceBounds>
		<optimizationSettings>
			<targetSettings  targetSettingsID="0" fileFormat="PNG24Format">
				<PNG24Format  transparency="true" interlaced="false" noMatteColor="false" matteColor="#FFFFFF" filtered="false">
					</PNG24Format>
			</targetSettings>
		</optimizationSettings>
	</sfw>
</metadata>
<rect x="-6.167" y="-5.709" opacity="0" fill="#231F20" width="1331" height="360"/>
<image overflow="visible" enable-background="new    " width="450" height="456" xlink:href="matts/stock-vector-fire-symbol-and-icon-143557756.jpg"  transform="matrix(0.3814 0 0 0.3814 -544.6497 -612.5)">
</image>
<path fill="#FFFFFF" d="M-195.917,244.348c0,0,38.328,3.26,69.956-12.211c31.628-15.47,54.225-9.135,62.419-7.589
	c9.208,1.736,9.208,1.736,9.208,1.736s-32.505-1.54-55.252,10.421S-161.384,258.242-195.917,244.348z"/>
<circle fill="#29ABE2" cx="1172" cy="846.334" r="120"/>
<path fill="#FF1D25" d="M111,804c-78.803,0-143.408-60.77-149.521-138c-0.313,3.959-0.479,7.961-0.479,12
	c0,82.844,67.157,150,150,150s150-67.156,150-150c0-4.039-0.165-8.041-0.479-12C254.408,743.23,189.803,804,111,804z"/>
<g>
	<path fill="#3FA9F5" d="M452.568-489.013c3.188-4.83,5.409-4.83,4.153-12.076c-1.257-7.245-6.763-31.013-8.695-35.746
		c-0.11-0.271-0.224-0.541-0.339-0.812c-14.165,11.595-30.44,23.488-47.037,40.202c-29.021,29.225-36.091,72.431-37.354,100.371
		l41.546-8.663c0,0,3.993-0.383,13.524,1.42c9.532,1.801,23.444,4.895,27.565-3.092c4.124-7.988,1.805-12.11,1.805-13.655
		c0-1.547-2.315-4.121,0.257-5.152c2.576-1.03,5.153-3.864,2.836-7.471c-1.178-1.831-1.688-2.465-1.908-2.647
		c0.773-0.364,4.408-2.163,4.322-3.891c-0.097-1.933-2.802-8.114-1.643-9.179c1.159-1.062,11.786-1.158,13.429-5.796
		c1.644-4.638,0.773-5.024-3.284-10.917C457.689-472.01,449.382-484.183,452.568-489.013z"/>
	<path fill="#FFFFFF" d="M357-612c60.753,0,110,49.248,110,110c-132.334,0-24.331,110-110,110c-60.752,0-110-49.248-110-110
		S293.337-612,357-612z"/>
</g>
<path fill="#FFFFFF" d="M815-532c60.753,0,110,49.248,110,110c-132.334,0-24.332,110-110,110c-60.752,0-110-49.248-110-110
	S751.338-532,815-532z"/>
<path fill="#FFFFFF" d="M-163,305c60.751,0,110,49.248,110,110c-132.333,0-24.333,110-110,110c-60.751,0-110-49.248-110-110
	S-226.664,305-163,305z"/>
<g>
	<path fill="#333333" d="M1482.256,905.688c0,0,27.449,13.727,74.936-17.063c47.482-30.791,83.839-28.938,95.71-25.229
		c11.871,3.711,11.871,3.711,11.871,3.711s-37.839,2.969-71.228,22.258S1526.77,935.363,1482.256,905.688z"/>
	<path fill="#333333" d="M1471.184,886.893c0,0,23.792,11.895,64.944-14.789c41.151-26.686,72.659-25.078,82.947-21.863
		c10.288,3.217,10.288,3.217,10.288,3.217s-32.794,2.57-61.729,19.289C1538.7,889.463,1509.765,912.611,1471.184,886.893z"/>
	<path fill="#333333" d="M1462.666,869.611c0,0,20.133,10.066,54.953-12.514c34.822-22.58,61.482-21.219,70.188-18.498
		c8.705,2.719,8.705,2.719,8.705,2.719s-27.748,2.178-52.232,16.324C1519.798,871.787,1495.311,891.375,1462.666,869.611z"/>
</g>
<g>
	<path fill="#FFFFFF" d="M660.42,894.854c51.435,97.279,210.623,47.391,264.544,155.043
		C844.317,990.305,688.9,1009.076,660.42,894.854z"/>
	<path fill="#FFFFFF" d="M661.576,856.477c44.974,84.287,184.562,39.678,229.271,134.369
		C821.021,939.479,686.229,955.35,661.576,856.477z"/>
	<path fill="#FFFFFF" d="M668.573,825.109c39.378,70.988,155.975,33.527,193.999,113.697
		C803.432,895.488,689.405,908.654,668.573,825.109z"/>
</g>
<g>
	<path fill="#FFFFFF" d="M636.661,773.814c4.554-6.895,7.727-6.895,5.933-17.242c-1.794-10.346-9.656-44.281-12.415-51.041
		c-1.265-3.094-2.753-6.18-4.001-8.625c-19.76-15.395-39.59-20.354-51.176-21.938v217.949c3.067,0.262,7.279,0.785,12.825,1.836
		c13.61,2.57,33.478,6.986,39.359-4.416c5.888-11.406,2.577-17.291,2.577-19.496c0-2.209-3.31-5.887,0.368-7.359
		c3.678-1.471,7.354-5.516,4.047-10.666c-1.681-2.615-2.411-3.52-2.728-3.783c1.105-0.518,6.299-3.086,6.176-5.553
		c-0.141-2.76-4-11.588-2.347-13.104c1.654-1.518,16.828-1.654,19.177-8.277c2.343-6.621,1.104-7.174-4.692-15.588
		C643.972,798.096,632.109,780.713,636.661,773.814z"/>
	<path fill="#FFFFFF" d="M577,675.16c-5.224-0.76-10.563-1.16-16-1.16c-60.752,0-110,49.246-110,110c0,60.75,49.248,110,110,110
		c5.438,0,10.776-0.4,16-1.162V675.16z"/>
</g>
<path fill="#FFFFFF" d="M-171.199-181.001c0,0,67.04-33.51,103.921-91.354c36.877-57.847,80.881-70.26,96.077-76.015
	c17.074-6.465,17.074-6.465,17.074-6.465s-55.608,30.454-81.286,73.445C-61.088-238.397-99.668-192.971-171.199-181.001z"/>
<g>
	<path fill="#FFFFFF" d="M188.801-55.001c0,0,67.04-33.51,103.921-91.354c36.877-57.847,80.881-70.26,96.079-76.015
		c17.072-6.465,17.072-6.465,17.072-6.465s-55.608,30.454-81.284,73.445C298.912-112.399,260.332-66.971,188.801-55.001z"/>
	<path fill="#FFFFFF" d="M162.801-77.001c0,0,67.04-33.51,103.921-91.354c36.877-57.847,80.881-70.26,96.079-76.015
		c17.072-6.465,17.072-6.465,17.072-6.465s-55.608,30.454-81.284,73.445C272.912-134.399,234.332-88.971,162.801-77.001z"/>
	<path fill="#FFFFFF" d="M145.801-114.001c0,0,67.04-33.51,103.921-91.354c36.877-57.847,80.881-70.26,96.079-76.015
		c17.072-6.465,17.072-6.465,17.072-6.465s-55.608,30.454-81.286,73.445C255.912-171.397,217.332-125.971,145.801-114.001z"/>
</g>
<path fill="#FFFFFF" d="M-217.711-220.194c0,0,67.039-33.506,103.917-91.352c36.878-57.846,80.881-70.26,96.08-76.014
	c17.075-6.465,17.075-6.465,17.075-6.465s-55.613,30.452-81.288,73.445C-107.601-277.591-146.18-232.162-217.711-220.194z"/>
<path fill="#FFFFFF" d="M-242.959-275.692c0,0,67.038-33.506,103.917-91.351c36.877-57.847,80.882-70.26,96.08-76.015
	c17.074-6.465,17.074-6.465,17.074-6.465s-55.611,30.453-81.286,73.445C-132.85-333.088-171.428-287.661-242.959-275.692z"/>
<path fill="#2285A9" d="M-488.441,122.758c0,64.98,52.678,117.662,117.662,117.662c60.061,0,109.604-45.001,116.769-103.122
	c-1.17,70.794-58.914,127.824-129.986,127.824c-71.805,0-130.014-58.21-130.014-130.015c0-71.805,58.209-130.013,130.014-130.013
	c2.282,0,4.55,0.061,6.802,0.176C-439.195,8.604-488.441,59.927-488.441,122.758z"/>
<g>
	<path fill="#FFFFFF" d="M1146.76-377.454c0,0,44.723,19.69,117.839-32.968c73.114-52.66,131.075-52.538,150.243-47.563
		c19.165,4.976,19.165,4.976,19.165,4.976s-59.942,7.665-111.536,40.938C1270.877-378.796,1219.861-333.725,1146.76-377.454z"/>
	<path fill="#FFFFFF" d="M1127.693-406.482c0,0,38.76,17.065,102.129-28.572c63.366-45.639,113.599-45.534,130.209-41.223
		c16.61,4.313,16.61,4.313,16.61,4.313s-51.95,6.642-96.666,35.479C1235.262-407.648,1191.051-368.584,1127.693-406.482z"/>
	<path fill="#FFFFFF" d="M1112.803-433.299c0,0,32.797,14.439,86.417-24.177c53.619-38.618,96.122-38.528,110.177-34.88
		c14.055,3.647,14.055,3.647,14.055,3.647s-43.957,5.621-81.793,30.021C1203.824-434.285,1166.41-401.229,1112.803-433.299z"/>
</g>
<g>
	<path fill="#FFFFFF" d="M-452.041-96.261c0,0,70.857-35.416,109.836-96.555c38.979-61.14,85.486-74.26,101.553-80.342
		c18.046-6.833,18.046-6.833,18.046-6.833s-58.777,32.188-85.915,77.628C-335.66-156.925-376.437-108.911-452.041-96.261z"/>
	<path fill="#FFFFFF" d="M-505.202-129.685c0,0,70.856-35.414,109.835-96.555c38.979-61.139,85.487-74.26,101.553-80.341
		c18.047-6.833,18.047-6.833,18.047-6.833s-58.778,32.187-85.915,77.627C-388.821-190.351-429.598-142.335-505.202-129.685z"/>
	<path fill="#FFFFFF" d="M-527.888-196.344c0,0,70.854-35.414,109.835-96.554c38.978-61.14,85.487-74.26,101.551-80.342
		c18.047-6.833,18.047-6.833,18.047-6.833s-58.776,32.188-85.915,77.627C-411.508-257.008-452.283-208.993-527.888-196.344z"/>
</g>
<g>
	<g>
		<circle fill="none" stroke="#FFFFFF" stroke-width="30" stroke-miterlimit="10" cx="176.642" cy="158.387" r="120"/>
		<circle fill="none" stroke="#FFFFFF" stroke-width="30" stroke-miterlimit="10" cx="176.641" cy="158.387" r="140"/>
		<path fill="#FFFFFF" d="M168.171,298.425C139.546,286.053,39.335,181.396,38.894,159.904
			c-0.354-17.207,64.97-89.013,42.282-108.727C58.492,31.463,2.256,153.313,2.367,162.314c0.176,14.088,4.361,13.311,12.058,21.289
			c7.699,7.978-3.677,33.817-9.252,46.34c-5.576,12.523-7.076,13.555-2.355,21.713c4.721,8.16,24.768,4.613,27.324,6.207
			c2.557,1.597-0.37,14.188,0.126,17.861c0.441,3.282,7.921,5.396,9.509,5.812c-0.354,0.423-1.094,1.793-2.667,5.657
			c-3.104,7.604,2.746,12.037,7.959,13.074c5.21,1.041,1.749,6.701,2.291,9.614c0.542,2.909-2.38,11.484,8.188,25.084
			c10.563,13.595,35.681,2.892,53-3.846c17.323-6.741,160.328-24.521,145.557-48.849
			C239.327,257.949,179.441,303.295,168.171,298.425z"/>
	</g>
	<circle fill="#2285A9" cx="176.642" cy="158.387" r="80"/>
</g>
<g enable-background="new    ">
	<path fill="#FFFFFF" d="M426.336,124.098c5.466,0,10.565,1.535,15.3,4.601c4.731,3.068,7.832,7,9.3,11.8
		c15.465-10.932,30.465-16.4,45-16.4c9.331,0,16.6,3.27,21.8,9.801c3.866,4.934,5.8,10.934,5.8,18c0,2.269-0.2,4.668-0.6,7.199
		l-11.6,72.4h-18.4l11.6-72.599c0.131-1.332,0.2-3.231,0.2-5.7c0-2.466-1.134-5.132-3.4-8c-2.269-2.866-5.734-4.3-10.4-4.3
		c-7.6,0-14.1,0.769-19.5,2.3c-5.4,1.534-11.3,4.234-17.7,8.1c0,0.135-0.2,1.5-0.6,4.101c-0.4,2.6-0.6,3.969-0.6,4.1l-11.4,72h-18.4
		l11.4-72.599c0.266-1.332,0.4-2.531,0.4-3.601c0-3.865-1.169-7.231-3.5-10.1c-2.334-2.866-5.834-4.3-10.5-4.3
		c-4.669,0-9.035,0.469-13.1,1.399c-4.069,0.935-7.334,1.969-9.8,3.101c-2.469,1.134-6.834,3.168-13.1,6.1l-12.6,80h-18.4
		l16.8-106.2h13.8l2.6,12.4c1.2-0.531,2.966-1.466,5.3-2.8c2.331-1.332,4.065-2.301,5.2-2.9c1.131-0.6,2.731-1.432,4.8-2.5
		c2.065-1.065,3.865-1.831,5.4-2.3c1.531-0.466,3.3-1.031,5.3-1.7C416.336,124.567,420.867,124.098,426.336,124.098z"/>
	<path fill="#FFFFFF" d="M531.534,231.498l16.8-106.2h18.4l-16.8,106.2H531.534z M556.534,90.899h13c2.666,0,4,1.269,4,3.8
		c0,0.399-0.069,0.8-0.2,1.2l-1.8,12.8c-0.534,3.068-2.334,4.6-5.4,4.6h-13c-1.469,0-2.569-0.431-3.3-1.3
		c-0.734-0.865-0.969-1.966-0.7-3.3l1.8-12.8C551.466,92.567,553.334,90.899,556.534,90.899z"/>
	<path fill="#FFFFFF" d="M645.732,123.499c10.4,0,17.867,3.334,22.4,10c3.332,5.068,5,10.935,5,17.6c0,2.27-0.199,4.669-0.6,7.2
		l-11.6,73.2h-18.4l11.6-73.2c0.266-1.6,0.4-3.7,0.4-6.3s-1.069-5.2-3.2-7.8c-2.135-2.601-6.135-3.9-12-3.9
		c-5.869,0-11.2,0.8-16,2.4c-4.8,1.6-11.4,4.399-19.8,8.399l-12.801,80.4h-18.399l16.8-106.2h13.8l2.601,12.2
		c0.531-0.4,1.766-1.131,3.699-2.2c1.932-1.065,3.2-1.731,3.801-2c0.6-0.266,1.8-0.899,3.6-1.899s3.1-1.632,3.9-1.9
		c0.8-0.266,2.031-0.766,3.699-1.5c1.666-0.731,3-1.266,4-1.6c1-0.332,2.301-0.731,3.9-1.2c1.6-0.466,3.065-0.766,4.4-0.9
		C640.132,123.767,643.198,123.499,645.732,123.499z"/>
	<path fill="#FFFFFF" d="M710.134,128.098c2.531-1.465,5.4-2.565,8.6-3.3c3.199-0.731,6.932-1.1,11.199-1.1
		c4.266,0,9.9,0.7,16.9,2.1c7,1.4,13.1,3.3,18.301,5.7l9.199-57h18l-25,157h-14l-2.4-11.6c-4,2.801-9.699,5.635-17.1,8.5
		c-7.4,2.869-14.234,4.301-20.5,4.301c-6.268,0-11.668-1.633-16.199-4.9c-4.535-3.266-7.734-7.566-9.6-12.9
		c-2.4-7.199-3.602-14.031-3.602-20.5c0-6.465,0.4-11.832,1.201-16.1c0.799-4.266,1.531-8,2.199-11.201
		c0.666-3.199,1.5-6.5,2.5-9.899c1-3.4,2.166-6.466,3.5-9.2c1.332-2.731,2.801-5.4,4.4-8s3.432-4.865,5.5-6.8
		C705.3,131.267,707.598,129.567,710.134,128.098z M702.333,193.699c0,14.533,4.801,21.799,14.4,21.799
		c10.932,0,23.066-2.865,36.4-8.6l9.799-61.6c-11.068-3.2-22.6-4.8-34.6-4.8c-4,0-7.4,0.935-10.199,2.8
		c-6.4,4.4-11.201,16.2-14.4,35.401C702.8,184.299,702.333,189.299,702.333,193.699z"/>
</g>
<g enable-background="new    ">
	<path fill="#2285A9" d="M878.731,85.098c5.865,0,10.665,0.969,14.399,2.9c3.731,1.935,6.601,4.034,8.601,6.3
		c5.065,6,7.6,13.869,7.6,23.601c0,3.469-0.334,7.6-1,12.399c-0.669,4.8-1.635,9.4-2.9,13.8c-1.269,4.4-2.668,8.101-4.199,11.101
		c-1.535,3-3.27,5.634-5.2,7.899c-1.935,2.27-3.9,4-5.9,5.2s-4.1,2.234-6.3,3.101c-2.2,0.868-4.369,1.369-6.5,1.5
		c-2.135,0.135-4.269,0.301-6.4,0.5c-2.134,0.199-4.634,0.234-7.5,0.1c-2.868-0.131-10.234-0.699-22.1-1.7
		c-11.869-1-18.068-1.631-18.6-1.899l-10,61.599h-18.4l23.2-146.4H878.731z M889.93,128.298c0.531-5.331,0.801-9.1,0.801-11.3
		s-0.435-4.2-1.301-6c-0.868-1.8-1.734-3.266-2.6-4.4c-0.869-1.131-2.034-1.965-3.5-2.5c-2.4-0.931-5.068-1.399-8-1.399h-42.2
		l-8.399,53.2h42c9.465,0,16-4.4,19.6-13.2C887.797,138.967,888.997,134.167,889.93,128.298z"/>
	<path fill="#2285A9" d="M969.928,123.298c20.665,0,33,5,37,15c1.465,3.469,2.199,6.534,2.199,9.2c0,10.135-2.1,18.034-6.3,23.7
		c-4.2,5.668-8.899,9.7-14.101,12.1c-10.134,4.4-20.469,6.6-31,6.6c-5.334,0-10.368-0.301-15.1-0.9c-4.734-0.6-7.834-1.23-9.3-1.9
		c-0.8,5.336-1.2,9.936-1.2,13.801c0,3.869,0.531,6.934,1.6,9.199c2.132,4.135,6.732,6.27,13.801,6.4
		c3.065,0.135,8.166,0.201,15.3,0.201c7.132,0,18.101-1.066,32.899-3.201l-2.199,13.6c-13.869,3.869-29.469,5.801-46.801,5.801
		c-1.469,0-3,0-4.6,0c-12.668-0.135-21-4.932-25-14.4c-2.135-5.064-3.199-11.299-3.199-18.699s0.73-14.932,2.199-22.6
		c1.466-7.667,2.766-13.566,3.9-17.701c1.131-4.131,2.6-8.3,4.4-12.5c1.799-4.2,3.931-7.631,6.399-10.3
		c2.466-2.666,5.5-5.065,9.101-7.2c6.799-4.131,16.73-6.2,29.799-6.2H969.928z M935.128,174.299c3.731,0.4,6.865,0.6,9.4,0.6
		c2.531,0,4.4,0,5.6,0c1.2,0,3.365-0.131,6.5-0.4c3.131-0.266,6.1-0.631,8.9-1.1c2.8-0.465,5.631-1.2,8.5-2.2
		c2.865-1,5.365-2.166,7.5-3.5c6-4,9-9.601,9-16.8c0-4-1.2-6.601-3.6-7.801c-3.869-1.865-9.869-2.8-18-2.8
		c-11.201,0-19,2.4-23.4,7.2c-3.2,3.469-5.27,6.8-6.2,10c-1.335,3.869-2.3,7.234-2.899,10.1c-0.601,2.869-0.9,4.435-0.9,4.701
		C935.393,173.098,935.259,173.768,935.128,174.299z"/>
	<path fill="#2285A9" d="M1045.527,129.699c3.865-2.266,7.331-3.8,10.399-4.601c3.066-0.8,6.132-1.365,9.2-1.699
		c3.065-0.332,6.766-0.5,11.101-0.5c4.331,0,11.1,1,20.3,3s16.2,5.269,21,9.8l-14,95.799h-13.601l-2.8-11.799
		c-3.734,3.068-9,6.033-15.8,8.898c-6.8,2.869-13.034,4.301-18.7,4.301c-5.669,0-10.269-0.5-13.8-1.5c-3.534-1-6.869-2.801-10-5.4
		c-3.135-2.6-5.435-6.1-6.9-10.5c-1.868-5.865-2.8-12.199-2.8-19c0-6.799,0.731-14.199,2.2-22.199c1.466-8,3.5-15.1,6.1-21.3
		c2.601-6.2,5.301-11.065,8.101-14.6C1038.327,134.868,1041.658,131.967,1045.527,129.699z M1047.927,151.499
		c-1.6,2.669-3.199,6.435-4.8,11.3c-1.6,4.869-2.899,10.5-3.899,16.901c-1,6.398-1.5,11.898-1.5,16.5c0,4.6,0.6,8.367,1.8,11.299
		c2.266,5.469,6.899,8.201,13.899,8.201s12.9-0.766,17.7-2.301c4.8-1.531,10.601-4.031,17.4-7.5l9.6-63
		c-8.534-2.4-15.169-3.601-19.899-3.601c-4.734,0-8.5,0.269-11.301,0.8c-2.8,0.535-5.034,1.069-6.699,1.601
		c-1.669,0.534-3.734,1.634-6.2,3.3C1051.558,146.667,1049.527,148.833,1047.927,151.499z"/>
	<path fill="#2285A9" d="M1152.125,128.598c3.601-2.065,6.9-3.365,9.9-3.899c3-0.531,6.899-0.8,11.7-0.8
		c4.8,0,11.766,0.568,20.899,1.699c9.132,1.135,17.101,2.5,23.9,4.101l-1.8,12.6c-16.801-1.065-28.9-1.6-36.301-1.6
		c-7.399,0-11.899,0.134-13.5,0.399c-1.6,0.27-3.434,1.069-5.5,2.4c-2.068,1.334-3.769,3.4-5.1,6.2
		c-3.334,6.269-6.2,16.068-8.6,29.399c-1.2,7.869-1.801,14.07-1.801,18.602c0,4.533,0.666,8.133,2,10.799
		c2.531,4.936,6.801,7.4,12.801,7.4c11.6,0,24.531-0.531,38.8-1.6l7.2-0.4l-2,12.801c-13.469,4-28.335,6-44.601,6
		c-0.935,0-1.8,0-2.6,0c-11.069-0.135-19.335-4.602-24.8-13.4c-3.335-5.6-5-12.201-5-19.801s0.699-15.564,2.1-23.9
		c1.4-8.331,3.3-15.865,5.7-22.599c2.399-6.731,4.865-11.966,7.399-15.7C1145.456,133.567,1148.525,130.667,1152.125,128.598z"/>
	<path fill="#2285A9" d="M1277.725,123.298c20.666,0,33,5,37,15c1.466,3.469,2.2,6.534,2.2,9.2c0,10.135-2.1,18.034-6.3,23.7
		c-4.2,5.668-8.9,9.7-14.1,12.1c-10.135,4.4-20.469,6.6-31,6.6c-5.335,0-10.369-0.301-15.101-0.9c-4.734-0.6-7.834-1.23-9.3-1.9
		c-0.8,5.336-1.2,9.936-1.2,13.801c0,3.869,0.531,6.934,1.601,9.199c2.131,4.135,6.73,6.27,13.8,6.4
		c3.065,0.135,8.165,0.201,15.3,0.201c7.131,0,18.1-1.066,32.9-3.201l-2.2,13.6c-13.869,3.869-29.469,5.801-46.8,5.801
		c-1.469,0-3,0-4.601,0c-12.669-0.135-21-4.932-25-14.4c-2.134-5.064-3.2-11.299-3.2-18.699s0.731-14.932,2.2-22.6
		c1.466-7.667,2.766-13.566,3.9-17.701c1.131-4.131,2.6-8.3,4.399-12.5c1.801-4.2,3.932-7.631,6.4-10.3
		c2.466-2.666,5.5-5.065,9.1-7.2c6.801-4.131,16.731-6.2,29.801-6.2H1277.725z M1242.926,174.299c3.731,0.4,6.866,0.6,9.4,0.6
		c2.531,0,4.399,0,5.6,0s3.366-0.131,6.5-0.4c3.132-0.266,6.101-0.631,8.9-1.1c2.8-0.465,5.631-1.2,8.5-2.2
		c2.865-1,5.365-2.166,7.5-3.5c6-4,9-9.601,9-16.8c0-4-1.2-6.601-3.601-7.801c-3.868-1.865-9.868-2.8-18-2.8
		c-11.199,0-19,2.4-23.399,7.2c-3.2,3.469-5.269,6.8-6.2,10c-1.334,3.869-2.3,7.234-2.9,10.1c-0.6,2.869-0.899,4.435-0.899,4.701
		C1243.191,173.098,1243.057,173.768,1242.926,174.299z"/>
</g>
<text transform="matrix(1 0 0 1 342.3362 -104.5015)" fill="#FFFFFF" font-family="'Exo-MediumItalic'" font-size="200">mind</text>
<text transform="matrix(1 0 0 1 780.3308 -104.5015)" fill="#2285A9" font-family="'Exo-MediumItalic'" font-size="200">Peace</text>
</svg>
